# xmcd CD database file
#
# Track frame offsets:
#	150
#	15418
#	29420
#	41055
#	55580
#	69570
#	83255
#	95395
#	107418
#	122630
#	135390
#	147725
#	159963
#	173603
#	186788
#
# Disc length: 2686 seconds
#
# Revision: 0
# Processed by: cddbd v1.5.1PL0 Copyright (c) Steve Scherf et al.
# Submitted via: CDex 1.51
#
DISCID=b40a7c0f
DTITLE=Jo Stafford - Broadway Revisited Jo Stafford
DYEAR=1900
DGENRE=Jazz
TTITLE0=My Romance
TTITLE1=Something To Remember
TTITLE2=It Never Entered My Mind
TTITLE3=They Say It's Wonderful
TTITLE4=I'm Always Chasing Rainbows
TTITLE5=Make The Man Love Me
TTITLE6=Happiness Is Just A Thing Called Joe
TTITLE7=Dancing In The Dark
TTITLE8=September Song
TTITLE9=Spring Is Here
TTITLE10=If I Were A Ball
TTITLE11=Mountain High,Valley Low
TTITLE12=How High The Moon
TTITLE13=I'm Your Girl
TTITLE14=Night And Day
EXTD=
EXTT0=
EXTT1=
EXTT2=
EXTT3=
EXTT4=
EXTT5=
EXTT6=
EXTT7=
EXTT8=
EXTT9=
EXTT10=
EXTT11=
EXTT12=
EXTT13=
EXTT14=
PLAYORDER=
